<?xml version="1.0" encoding="UTF-8"?>
<!DOCTYPE svg PUBLIC "-//W3C//DTD SVG 1.1//EN" "http://www.w3.org/Graphics/SVG/1.1/DTD/svg11.dtd">
<!-- Creator: CorelDRAW 2020 (64-Bit) -->
<svg xmlns="http://www.w3.org/2000/svg" xml:space="preserve" width="10.6913in" height="5.5841in" version="1.1" style="shape-rendering:geometricPrecision; text-rendering:geometricPrecision; image-rendering:optimizeQuality; fill-rule:evenodd; clip-rule:evenodd"
viewBox="0 0 10926.98 5707.2"
 xmlns:xlink="http://www.w3.org/1999/xlink"
 xmlns:xodm="http://www.corel.com/coreldraw/odm/2003">
 <defs>
  <style type="text/css">
   <![CDATA[
    .fil0 {fill:#999999}
   ]]>
  </style>
 </defs>
 <g id="Layer_x0020_1">
  <metadata id="CorelCorpID_0Corel-Layer"/>
  <path class="fil0" d="M3.82 4559.78l0 456.52c224.13,-19.92 577.1,81.96 577.1,81.96 0,0 369.46,86.72 350.32,94.99 -21.03,9.07 -677.37,-195.38 -927.42,-159.27l0 173.02c0,0 300.32,-20.07 761.01,61.47 222.84,39.44 492.66,129.38 764.71,202.84 420.03,113.42 735.45,165.58 1007.17,126.91 299.45,-42.62 618.9,-204.73 989.66,-379.49 172.66,-81.38 456.51,-224.4 656.13,-291.44 226.03,-75.91 470.77,-137.22 695.38,-158.36 376.82,-35.47 688.02,58.53 1043.59,167.18l439.65 134.34c469.11,143.33 1001.26,412.5 1412.01,434.56 281.92,15.13 555.93,-90.83 875.03,-209.37 333.51,-123.9 699.91,-155.16 979.22,-145.66 663.25,22.57 1017.05,227.88 1299.58,242.86l0 -124.93c-45.34,-1.51 -106.12,-4.33 -174.81,-9.62 -147.4,-11.36 -305.33,-111.51 -305.33,-111.51 0,0 78.49,6.19 200.04,54.72 79.54,31.75 203.74,43.61 280.1,48.01l0 -5249.51 -10926.98 94.26 3.82 4465.52zm297.6 755.29c-11.48,-12.39 -119.52,70.1 103.34,60.95 79,-3.24 208.94,3.62 331.21,65 0,0 -126.34,-113.57 -434.55,-125.96zm790.95 177.2c85.39,-14.73 764.75,200.18 1098.75,212.46 138.09,5.08 299.78,4.33 465.26,-22.48 0,0 -547.87,28.09 -1003.11,-103.25 -432.88,-124.89 -692.54,-64.01 -560.9,-86.73zm1823.39 99.16c113.37,-0.84 536.88,-221.32 581,-259.14l-581 259.14zm647.04 -103.25c357.4,-169.7 1215.43,-530.14 1648.24,-402.66 -312.04,0 -580.05,20.66 -1035.66,183.78 -455.61,163.13 -612.58,218.88 -612.58,218.88zm1449.17 -594.68c0,0 181.31,-27.81 375.07,-17.46 238.38,12.73 507.98,125.86 737.16,197.11 0,0 -478.58,-161.06 -800.19,-165.19 -321.61,-4.13 -312.03,-14.46 -312.03,-14.46zm2265.61 679.37c44.25,47.63 368.29,130.36 270.87,111.5 -74.66,-14.45 -209.62,-38.2 -277.58,-84.66 -67.96,-46.46 6.7,-26.84 6.7,-26.84zm457.52 32c0,0 160.09,20.05 371.4,-27.81 132.46,-29.99 249.77,-85 375.2,-136.35 26.09,-10.68 -336.02,227.88 -744.2,188.43 -50.99,-4.93 -15.31,-38.2 -2.39,-24.26zm477.63 53.69c81.36,-7.25 87.11,7.23 329.27,-105.31 0,0 -187.61,135.26 -328.31,131.12 -40.06,-3.62 -31.35,-30.42 -0.96,-25.81zm394.86 -226.33c0.14,0.33 100.4,-71.78 175.64,-79.5 11.01,-2.06 33.02,9.81 -11.96,19.1 -44.99,9.29 -163.68,60.4 -163.68,60.4zm1312.3 -172.41c0,0 129.22,-4.13 221.1,45.43 0,0 -95.72,-32.01 -188.56,-16.52 -3.16,-1.75 -23.22,5.09 -37.36,0.11 -16.77,-5.91 -25.71,-23.96 4.82,-29.02zm346.98 82.09c0,0 94.76,-40.27 268.97,39.23 0,0 243.39,90.86 391.14,77.44l0 33.04c0,0 -195.93,6.89 -387.31,-81.57 0,0 -148.36,-68.14 -272.79,-68.14zm-1247.68 -261.74c0,0 110.75,-82.9 323.55,-93.2 167.25,-8.1 337.35,56.92 499.61,-14.18 -258.32,51.61 -569.23,-125.22 -823.16,107.38zm-7297.01 343.98c0,0 453.7,117.7 991.62,24.77 0,0 -440.43,160.14 -991.62,-24.77zm791.1 -146.61c-4.66,5.02 -12.9,33.3 19.62,36.23 79.7,7.16 179.81,-27.88 241.21,-83.72 0.41,-0.37 -47.37,38.2 -129.22,38.2 -25.16,0 -120.19,-3.03 -131.61,9.29zm3560.75 -428.62c0,0 157.93,100.15 305.33,111.51 147.4,11.36 258.44,11.36 258.44,11.36l-16.27 -17.55c0,0 -225.89,-2.06 -347.45,-50.59 -121.56,-48.53 -200.05,-54.72 -200.05,-54.72zm2003.74 507.14c0,0 142.62,-4.13 265.13,-61.95 0,0 38.29,-12.39 3.83,15.49 -34.46,27.88 -138.79,77.43 -205.79,67.11 -67,-10.33 -67,-6.2 -67,-6.2 0,0 -19.14,-8.26 3.83,-14.45zm-3199.81 -718.6c0,0 204.97,-94.99 624.76,26.85l443.44 103.25 -599.14 -119.77c0,0 -299.57,-72.27 -469.06,-10.33zm-1998.23 743.35c113.37,-0.84 536.88,-221.33 581,-259.15l-581 259.15z"/>
 </g>
</svg>
